# xmcd CD database file generated by GCD 2.91
# 
# Track frame offsets:
#       182
#       10342
#       26800
#       44305
#       59112
#       71935
#       86142
#       106795
#       115842
#       128762
#       143117
#       156700
#       175757
#       190525
#       205340
# 
# Disc length: 2916 seconds
# 
# Revision: 3
# Processed by: cddbd v1.4b41PL1 Copyright (c) Steve Scherf et al.
# Submitted via: GCD 2.91
# 
DISCID=dc0b620f
DTITLE=Ray Charles - The Classic Years - Disc 1
DYEAR=1900
DGENRE=
TTITLE0=Stick And Stones
TTITLE1=Georgia On My Mind
TTITLE2=Ruby
TTITLE3=Hard Hearted Hannah
TTITLE4=Them That Got
TTITLE5=One Mint Julep
TTITLE6=I've Got News For You
TTITLE7=Hit The Road Jack
TTITLE8=Unchain My Heart
TTITLE9=Hide Nor Hair
TTITLE10=At The Club
TTITLE11=I Can't Stop Loving You
TTITLE12=Born To Lose
TTITLE13=You Don't Know Me
TTITLE14=You Are My Sunshine
EXTD=
EXTT0=
EXTT1=
EXTT2=
EXTT3=
EXTT4=
EXTT5=
EXTT6=
EXTT7=
EXTT8=
EXTT9=
EXTT10=
EXTT11=
EXTT12=
EXTT13=
EXTT14=
PLAYORDER=
